<?xml version="1.0" standalone="no"?>
<!DOCTYPE svg PUBLIC "-//W3C//DTD SVG 20010904//EN"
 "http://www.w3.org/TR/2001/REC-SVG-20010904/DTD/svg10.dtd">
<svg version="1.0" xmlns="http://www.w3.org/2000/svg"
 width="88.000000pt" height="88.000000pt" viewBox="0 0 88.000000 88.000000"
 preserveAspectRatio="xMidYMid meet">
<metadata>
Created by potrace 1.11, written by Peter Selinger 2001-2013
</metadata>
<g transform="translate(0.000000,88.000000) scale(0.100000,-0.100000)"
fill="#000000" stroke="none">
<path d="M0 530 l0 -275 57 -128 57 -128 130 3 130 3 60 134 61 134 3 -136 3
-137 149 0 150 0 0 400 0 400 -162 0 -163 0 -114 -250 c-63 -138 -118 -247
-122 -243 -4 4 -55 114 -113 243 -59 129 -111 239 -116 244 -7 7 -10 -90 -10
-264z"/>
</g>
</svg>
